<?xml version="1.0" encoding="utf-8"?>
<svg width="566" height="263" viewBox="0 0 566 263" xmlns="http://www.w3.org/2000/svg">
<rect id="frame" x="0" y="0" width="566" height="263" fill="#f5f5f5" stroke="none" stroke-width="0"/>

<!-- Association made -->
<g class="page_0_dTl4dzbe diagram_page" visibility="visible">
	<line x1="51" y1="85" x2="150" y2="85" stroke="#bf812d" stroke-width="2"/>
	<text x="98" y="102" fill="#01665e" font-family="Verdana" font-size="12">0,N</text>
	<line x1="255" y1="85" x2="150" y2="85" stroke="#bf812d" stroke-width="2"/>
	<text x="181" y="102" fill="#01665e" font-family="Verdana" font-size="12">1,1</text>
	<g>
		<path d="M161 60 a14 14 90 0 1 14 14 V85 h-50 V74 a14 14 90 0 1 14 -14" fill="#dfc27d" stroke="#dfc27d" stroke-width="0"/>
		<path d="M175 85 v11 a14 14 90 0 1 -14 14 H139 a14 14 90 0 1 -14 -14 V85 H50" fill="#f6e8c3" stroke="#f6e8c3" stroke-width="0"/>
		<rect x="125" y="60" width="50" height="50" fill="none" rx="14" stroke="#bf812d" stroke-width="2"/>
		<line x1="125" y1="85" x2="175" y2="85" stroke="#bf812d" stroke-width="1"/>
		<text x="133" y="77.75" fill="#000" font-family="Verdana" font-size="12">made</text>
	</g>
</g>

<!-- Association is tagged as -->
<g class="page_0_dTl4dzbe diagram_page" visibility="visible">
	<line x1="255" y1="85" x2="379" y2="85" stroke="#bf812d" stroke-width="2"/>
	<text x="308" y="102" fill="#01665e" font-family="Verdana" font-size="12">0,1</text>
	<line x1="506" y1="85" x2="379" y2="85" stroke="#bf812d" stroke-width="2"/>
	<text x="428" y="102" fill="#01665e" font-family="Verdana" font-size="12">0,N</text>
	<g>
		<path d="M409 60 a14 14 90 0 1 14 14 V85 h-88 V74 a14 14 90 0 1 14 -14" fill="#dfc27d" stroke="#dfc27d" stroke-width="0"/>
		<path d="M423 85 v11 a14 14 90 0 1 -14 14 H349 a14 14 90 0 1 -14 -14 V85 H88" fill="#f6e8c3" stroke="#f6e8c3" stroke-width="0"/>
		<rect x="335" y="60" width="88" height="50" fill="none" rx="14" stroke="#bf812d" stroke-width="2"/>
		<line x1="335" y1="85" x2="423" y2="85" stroke="#bf812d" stroke-width="1"/>
		<text x="342" y="77.75" fill="#000" font-family="Verdana" font-size="12">is tagged as</text>
	</g>
</g>

<!-- Association is a -->
<g class="page_0_dTl4dzbe diagram_page" visibility="visible">
	<line x1="150" y1="220" x2="255" y2="220" stroke="#bf812d" stroke-width="2"/>
	<text x="193" y="237" fill="#01665e" font-family="Verdana" font-size="12">0,N</text>
	<line x1="255" y1="85" x2="255" y2="220" stroke="#bf812d" stroke-width="2"/>
	<text x="260" y="178" fill="#01665e" font-family="Verdana" font-size="12">1,1</text>
	<g>
		<path d="M259 195 a14 14 90 0 1 14 14 V220 h-36 V209 a14 14 90 0 1 14 -14" fill="#dfc27d" stroke="#dfc27d" stroke-width="0"/>
		<path d="M273 220 v11 a14 14 90 0 1 -14 14 H251 a14 14 90 0 1 -14 -14 V220 H36" fill="#f6e8c3" stroke="#f6e8c3" stroke-width="0"/>
		<rect x="237" y="195" width="36" height="50" fill="none" rx="14" stroke="#bf812d" stroke-width="2"/>
		<line x1="237" y1="220" x2="273" y2="220" stroke="#bf812d" stroke-width="1"/>
		<text x="244" y="212.75" fill="#000" font-family="Verdana" font-size="12">is a</text>
	</g>
</g>

<!-- Entity BRAND -->
<g class="page_0_dTl4dzbe diagram_page" visibility="visible">
	<g>
		<rect x="9" y="51" width="84" height="25" fill="#80cdc1" stroke="#80cdc1" stroke-width="0" opacity="1"/>
		<rect x="9" y="76" width="84" height="43" fill="#c7eae5" stroke="#c7eae5" stroke-width="0" opacity="1"/>
		<rect x="9" y="51" width="84" height="68" fill="none" stroke="#35978f" stroke-width="2" opacity="1"/>
		<line x1="9" y1="76" x2="93" y2="76" stroke="#35978f" stroke-width="1"/>
	</g>
	<text x="29" y="68.75" fill="#000" font-family="Verdana" font-size="12">BRAND</text>
	<text x="14" y="93.8" fill="#000" font-family="Verdana" font-size="12">brand code</text>
	<line x1="14" y1="96" x2="82" y2="96" stroke="#000" stroke-width="1"/>
	<text x="14" y="110.8" fill="#000" font-family="Verdana" font-size="12">brand name</text>
</g>

<!-- Entity PRODUCT -->
<g class="page_0_dTl4dzbe diagram_page" visibility="visible">
	<g>
		<rect x="207" y="9" width="96" height="25" fill="#80cdc1" stroke="#80cdc1" stroke-width="0" opacity="1"/>
		<rect x="207" y="34" width="96" height="127" fill="#c7eae5" stroke="#c7eae5" stroke-width="0" opacity="1"/>
		<rect x="207" y="9" width="96" height="152" fill="none" stroke="#35978f" stroke-width="2" opacity="1"/>
		<line x1="207" y1="34" x2="303" y2="34" stroke="#35978f" stroke-width="1"/>
	</g>
	<text x="225" y="26.75" fill="#000" font-family="Verdana" font-size="12">PRODUCT</text>
	<text x="212" y="51.8" fill="#000" font-family="Verdana" font-size="12">product code</text>
	<line x1="212" y1="54" x2="291" y2="54" stroke="#000" stroke-width="1"/>
	<text x="212" y="68.8" fill="#000" font-family="Verdana" font-size="12">product name</text>
	<text x="212" y="85.8" fill="#000" font-family="Verdana" font-size="12">description</text>
	<text x="212" y="102.8" fill="#000" font-family="Verdana" font-size="12">picture</text>
	<text x="212" y="119.8" fill="#000" font-family="Verdana" font-size="12">price</text>
	<text x="212" y="136.8" fill="#000" font-family="Verdana" font-size="12">rate</text>
	<text x="212" y="153.8" fill="#000" font-family="Verdana" font-size="12">status</text>
</g>

<!-- Entity CATEGORY -->
<g class="page_0_dTl4dzbe diagram_page" visibility="visible">
	<g>
		<rect x="455" y="26" width="102" height="25" fill="#80cdc1" stroke="#80cdc1" stroke-width="0" opacity="1"/>
		<rect x="455" y="51" width="102" height="93" fill="#c7eae5" stroke="#c7eae5" stroke-width="0" opacity="1"/>
		<rect x="455" y="26" width="102" height="118" fill="none" stroke="#35978f" stroke-width="2" opacity="1"/>
		<line x1="455" y1="51" x2="557" y2="51" stroke="#35978f" stroke-width="1"/>
	</g>
	<text x="473" y="43.75" fill="#000" font-family="Verdana" font-size="12">CATEGORY</text>
	<text x="460" y="68.8" fill="#000" font-family="Verdana" font-size="12">category code</text>
	<line x1="460" y1="71" x2="546" y2="71" stroke="#000" stroke-width="1"/>
	<text x="460" y="85.8" fill="#000" font-family="Verdana" font-size="12">category name</text>
	<text x="460" y="102.8" fill="#000" font-family="Verdana" font-size="12">subtitle</text>
	<text x="460" y="119.8" fill="#000" font-family="Verdana" font-size="12">picture</text>
	<text x="460" y="136.8" fill="#000" font-family="Verdana" font-size="12">home order</text>
</g>

<!-- Entity TYPE -->
<g class="page_0_dTl4dzbe diagram_page" visibility="visible">
	<g>
		<rect x="112" y="186" width="76" height="25" fill="#80cdc1" stroke="#80cdc1" stroke-width="0" opacity="1"/>
		<rect x="112" y="211" width="76" height="43" fill="#c7eae5" stroke="#c7eae5" stroke-width="0" opacity="1"/>
		<rect x="112" y="186" width="76" height="68" fill="none" stroke="#35978f" stroke-width="2" opacity="1"/>
		<line x1="112" y1="211" x2="188" y2="211" stroke="#35978f" stroke-width="1"/>
	</g>
	<text x="135" y="203.75" fill="#000" font-family="Verdana" font-size="12">TYPE</text>
	<text x="117" y="228.8" fill="#000" font-family="Verdana" font-size="12">type code</text>
	<line x1="117" y1="231" x2="177" y2="231" stroke="#000" stroke-width="1"/>
	<text x="117" y="245.8" fill="#000" font-family="Verdana" font-size="12">type name</text>
</g>
</svg>